HIERARCHY
ROOT hip
{
	OFFSET 0.000000 0.000000 0.000000 
	CHANNELS 6 Xposition Yposition Zposition Xrotation Zrotation Yrotation
	JOINT abdomen
	{
		OFFSET 0.000000 3.402643 0.000000 
		CHANNELS 3 Xrotation Zrotation Yrotation
		JOINT chest
		{
			OFFSET 0.000000 8.438565 -0.680529 
			CHANNELS 3 Xrotation Zrotation Yrotation
			JOINT neck
			{
				OFFSET 0.000000 10.207942 -0.272212 
				CHANNELS 3 Xrotation Zrotation Yrotation
				JOINT head
				{
					OFFSET 0.000000 3.130431 0.000000 
					CHANNELS 3 Xrotation Zrotation Yrotation
					End Site
					{
						OFFSET 0.000000 3.130435 0.000000 
					}
				}
			}
			JOINT lCollar
			{
				OFFSET 3.470700 6.669187 -0.816635 
				CHANNELS 3 Yrotation Zrotation Xrotation
				JOINT lShldr
				{
					OFFSET 3.198488 0.000000 0.000000 
					CHANNELS 3 Zrotation Yrotation Xrotation
					JOINT lForeArm
					{
						OFFSET 10.139888 0.000000 0.000000 
						CHANNELS 3 Yrotation Zrotation Xrotation
						JOINT lHand
						{
							OFFSET 8.370511 0.000000 0.000000 
							CHANNELS 3 Zrotation Yrotation Xrotation
							End Site
							{
								OFFSET 4.083176 0.000000 0.000000 
							}
						}
					}
				}
			}
			JOINT rCollar
			{
				OFFSET -3.470700 6.669187 -0.816635 
				CHANNELS 3 Yrotation Zrotation Xrotation
				JOINT rShldr
				{
					OFFSET -3.198488 0.000000 0.000000 
					CHANNELS 3 Zrotation Yrotation Xrotation
					JOINT rForeArm
					{
						OFFSET -10.139888 0.000000 0.000000 
						CHANNELS 3 Yrotation Zrotation Xrotation
						JOINT rHand
						{
							OFFSET -8.370511 0.000000 0.000000 
							CHANNELS 3 Zrotation Yrotation Xrotation
							End Site
							{
								OFFSET -4.083176 0.000000 0.000000 
							}
						}
					}
				}
			}
		}
	}
	JOINT lThigh
	{
		OFFSET 5.308129 -1.633274 1.361059 
		CHANNELS 3 Xrotation Zrotation Yrotation
		JOINT lShin
		{
			OFFSET -2.041588 -20.007561 0.000000 
			CHANNELS 3 Xrotation Zrotation Yrotation
			JOINT lFoot
			{
				OFFSET 0.000000 -19.190928 -1.224953 
				CHANNELS 3 Xrotation Yrotation Zrotation
				End Site
				{
					OFFSET 0.000000 -2.449906 4.627600 
				}
			}
		}
	}
	JOINT rThigh
	{
		OFFSET -5.308129 -1.633274 1.361059 
		CHANNELS 3 Xrotation Zrotation Yrotation
		JOINT rShin
		{
			OFFSET 2.041588 -20.007561 0.000000 
			CHANNELS 3 Xrotation Zrotation Yrotation
			JOINT rFoot
			{
				OFFSET 0.000000 -19.190928 -1.224953 
				CHANNELS 3 Xrotation Yrotation Zrotation
				End Site
				{
					OFFSET 0.000000 -2.449906 4.627600 
				}
			}
		}
	}
}
MOTION
Frames: 13
Frame Time: 0.033333
1.067865 44.098572 -1.817035 17.362598 2.628606 -25.047585 0.000000 0.000000 0.000000 -5.825691 -2.457959 5.992662 11.922071 18.650295 1.400434 -17.192102 -8.684823 -24.693752 -29.281355 8.425881 25.000000 -63.811314 -32.576111 -14.012401 -104.490906 0.486581 92.044533 -17.064974 -41.627956 -46.907639 -7.988860 7.627691 25.000000 39.711128 14.435437 52.983406 -31.798243 -114.418045 -48.218464 20.574697 10.935524 -80.432518 -8.191313 10.608797 20.449078 21.165129 -1.938290 -1.030952 -7.311188 11.583045 15.861326 -19.138180 2.899767 2.677227 19.503317 -1.377003 0.419672 -5.544602 8.898032 9.771528 
1.023633 44.091705 -1.785623 17.573357 2.979429 -25.648453 0.000000 0.000000 0.000000 -6.217277 -2.582399 5.974302 11.826773 18.765041 1.411849 -17.042370 -8.669046 -24.620998 -29.298903 8.501874 25.000000 -63.903980 -34.721684 -13.939212 -103.824028 0.129607 91.514755 -16.424969 -41.232800 -47.582344 -8.123857 7.632995 25.000000 39.111286 14.557673 52.672634 -31.993067 -115.532349 -49.268723 20.109829 10.382274 -80.504875 -8.339081 10.573522 20.395447 21.234446 -1.938254 -1.015363 -7.391168 12.211716 16.242153 -19.643240 2.762961 2.651352 19.981455 -0.999570 0.579646 -5.879637 9.507734 9.420537 
0.922459 44.081211 -1.706820 17.831585 3.709836 -26.825201 0.000000 0.000000 0.000000 -6.913186 -2.898730 5.907498 11.706618 18.967867 1.426976 -16.772511 -8.635045 -24.433170 -29.338308 8.442570 25.000000 -63.950527 -38.518414 -13.904946 -102.520790 -0.419755 90.140663 -15.262642 -40.435646 -48.795174 -8.332300 7.729849 25.000000 37.816822 14.526100 52.047333 -31.627556 -117.570686 -50.548145 19.364750 9.408427 -80.599899 -8.445700 10.405645 20.352589 21.364626 -2.002714 -1.072483 -7.492512 13.519454 16.705097 -20.484777 2.518940 2.606639 20.789480 -0.424133 0.767055 -6.391774 10.649887 8.607183 
0.783421 44.074036 -1.581882 17.614113 4.477958 -27.896196 0.000000 0.000000 0.000000 -7.288511 -3.429165 5.799444 11.705806 19.099493 1.433829 -16.606071 -8.522419 -24.183655 -29.445827 7.962461 25.000000 -64.019371 -41.054874 -13.873712 -101.655151 -0.500377 87.975899 -14.875180 -39.872906 -49.372585 -8.491140 7.988681 25.000000 36.271809 13.979525 51.406120 -30.133015 -118.991882 -50.586750 19.036898 8.663845 -80.651573 -8.054504 10.042698 20.256441 21.535093 -2.178640 -1.102790 -7.523436 14.737376 16.555639 -20.689669 2.255103 2.560312 21.171545 -0.323058 0.807279 -6.768064 12.015167 7.333272 
0.612217 44.053207 -1.399210 16.925560 5.139713 -28.720894 0.000000 0.000000 0.000000 -7.313985 -4.126424 5.645677 11.778586 19.242563 1.451303 -16.503845 -8.476147 -24.019083 -29.794388 7.328889 25.000000 -64.413780 -42.784454 -13.694185 -101.115997 -0.207792 85.626122 -14.753646 -39.985462 -49.567265 -8.895422 8.345610 25.000000 34.767921 13.602404 50.778954 -28.433102 -119.449875 -50.244419 18.927252 8.161527 -80.687790 -7.216346 9.441962 20.089231 21.741110 -2.276365 -1.141496 -7.285065 15.696676 15.115883 -20.211025 1.913445 2.422266 21.315020 -0.479250 0.786016 -6.657395 13.158576 5.724401 
0.419403 44.006065 -1.171242 15.938711 5.644993 -29.210360 0.000000 0.000000 0.000000 -7.086003 -4.845697 5.493699 11.832331 19.406038 1.463057 -16.498333 -8.538724 -23.980640 -30.414782 6.873878 25.000000 -65.483383 -44.153412 -13.181197 -100.675133 0.267438 83.088318 -14.752661 -40.611256 -49.521927 -9.713332 8.567591 25.000000 33.593346 14.009076 50.177387 -27.439529 -118.819901 -50.735352 19.003267 7.431358 -80.740051 -6.209398 8.695947 19.883112 22.155973 -2.139484 -1.151624 -6.783512 16.205961 12.310308 -19.337400 1.327108 2.206463 21.605759 -0.521793 0.818046 -6.048738 13.857510 5.102448 
0.214663 43.938366 -0.932496 14.968351 6.058408 -29.428358 0.000000 0.000000 0.000000 -6.828662 -5.517467 5.346928 11.820827 19.530220 1.474553 -16.585302 -8.648180 -24.060661 -31.129944 6.721417 25.000000 -67.205185 -45.455059 -12.338640 -99.970963 0.683589 79.552071 -15.605010 -41.211567 -48.841457 -10.750506 8.463274 25.000000 32.894787 15.145150 49.677986 -27.384832 -117.310600 -52.719234 19.259132 6.072452 -80.805389 -5.498247 7.949264 19.630522 23.021065 -1.748135 -1.110773 -6.148101 16.321730 8.685675 -18.570856 0.488237 1.920564 22.301640 -0.248718 0.939452 -5.336027 14.366948 5.830514 
-0.004657 43.870430 -0.718991 14.184504 6.487268 -29.574657 0.000000 0.000000 0.000000 -6.708209 -6.110544 5.228074 11.708698 19.562796 1.476989 -16.690207 -8.729575 -24.169289 -31.642027 6.668056 25.000000 -69.006973 -46.644447 -11.442238 -98.996231 0.810372 74.779312 -17.881021 -41.236900 -47.173260 -11.591131 8.101974 25.000000 32.642723 16.413715 49.338066 -27.661169 -115.381248 -55.576302 19.685543 4.299330 -80.860260 -5.272069 7.387975 19.442320 24.349720 -1.294453 -1.075545 -5.481637 16.394482 5.410616 -18.122925 -0.380976 1.670889 23.267044 0.155326 1.099407 -4.482288 15.187008 7.388011 
-0.250930 43.817017 -0.547819 13.605790 6.883325 -29.909853 0.000000 0.000000 0.000000 -6.694903 -6.595743 5.127314 11.557985 19.496496 1.477989 -16.707357 -8.692864 -24.203838 -31.651709 6.521493 25.000000 -70.311523 -47.537628 -10.783327 -98.252037 0.578076 70.297768 -20.427494 -40.570438 -45.463928 -11.932485 7.692464 25.000000 32.667191 17.409027 49.168312 -27.430527 -113.455032 -58.008286 20.360415 2.632335 -80.867615 -5.448205 7.203540 19.368238 26.129187 -1.031109 -1.111024 -4.962548 16.775127 3.476594 -17.865702 -0.888637 1.494120 24.094542 0.181349 1.186927 -3.775513 16.685768 9.384556 
-0.526136 43.772682 -0.409235 13.092573 7.173895 -30.474665 0.000000 0.000000 0.000000 -6.670537 -6.964721 5.050683 11.412951 19.360855 1.457021 -16.558687 -8.552332 -24.149279 -31.142300 6.355182 25.000000 -71.122299 -48.133957 -10.367226 -98.145241 0.172630 68.034737 -21.252657 -39.726749 -45.111393 -11.849700 7.323671 25.000000 32.814896 18.135519 49.094425 -26.338120 -111.719521 -59.244625 21.303877 1.305999 -80.864220 -5.829571 7.429982 19.440588 28.384518 -0.992726 -1.262155 -4.664066 17.500381 3.074689 -17.584425 -0.956740 1.450841 24.659824 -0.043117 1.194633 -3.546358 18.017149 9.854020 
-0.807459 43.720375 -0.282861 12.549231 7.456352 -30.980885 0.000000 0.000000 0.000000 -6.627448 -7.382529 4.956083 11.279257 19.235353 1.451480 -16.275448 -8.464980 -24.123003 -30.461124 6.354076 25.000000 -71.855164 -48.736687 -9.999312 -98.407669 -0.185771 67.871429 -20.211214 -39.028851 -46.130947 -11.731731 6.952725 25.000000 32.993217 18.785248 49.059067 -24.768324 -110.257034 -59.547215 22.310879 0.019664 -80.846466 -6.482734 7.759249 19.510633 31.148104 -0.954305 -1.408632 -4.329699 18.156086 3.462743 -17.240461 -0.966694 1.444995 25.134794 -0.316668 1.186754 -3.499027 18.887529 9.267253 
-1.065182 43.652065 -0.159361 11.961806 7.931731 -31.157301 0.000000 0.000000 0.000000 -6.618271 -8.052165 4.816862 11.147755 19.136919 1.445440 -15.979236 -8.618693 -24.271944 -30.001493 6.624146 25.000000 -72.745186 -49.611507 -9.527655 -98.436417 -0.334336 67.903984 -19.165615 -38.270672 -47.135040 -11.846966 6.475974 25.000000 33.139263 19.531168 48.974571 -23.464127 -109.077133 -59.750046 23.111853 -1.635768 -80.826912 -7.645233 7.799975 19.462036 34.452641 -0.613401 -1.523251 -3.544860 18.431604 3.558367 -16.995724 -1.386687 1.322387 25.778078 -0.351615 1.212812 -3.598371 19.105185 7.959320 
-1.294008 43.579391 -0.046500 11.338972 8.562611 -31.081530 0.000000 0.000000 0.000000 -6.622467 -8.867174 4.657877 11.084009 18.963873 1.430808 -15.855828 -8.975394 -24.506273 -29.797844 7.008911 25.000000 -73.638512 -50.584789 -9.059370 -98.175018 -0.234485 66.802605 -19.812317 -37.197697 -46.997120 -12.094802 5.870803 25.000000 33.183147 20.449049 48.809998 -23.072168 -108.156502 -60.599392 23.665331 -3.875820 -80.781975 -9.304585 7.633221 19.302183 38.239742 0.001010 -1.590446 -2.084630 18.279100 2.684124 -16.871572 -2.108888 1.080526 26.585947 -0.316876 1.317982 -3.859891 19.092194 6.213555 
